<svg width="48" height="48" viewBox="0 0 48 48" fill="none" xmlns="http://www.w3.org/2000/svg">
<rect width="48" height="48" rx="7" fill="#FCE400"/>
<path d="M10.4055 25.8151L8.16669 28.0539L16.0026 31.4121L19.3624 39.2496L21.6013 37.0108L20.4819 31.4121L25.7274 26.1666L31.4433 38.3646L33.5634 36.2445L31.6792 20.2164L36.1569 15.7371C36.4593 15.445 36.7005 15.0956 36.8665 14.7093C37.0325 14.3229 37.1198 13.9074 37.1235 13.4869C37.1271 13.0664 37.047 12.6495 36.8878 12.2603C36.7286 11.8711 36.4934 11.5175 36.1961 11.2202C35.8988 10.9229 35.5452 10.6878 35.156 10.5285C34.7669 10.3693 34.3499 10.2892 33.9294 10.2928C33.509 10.2965 33.0934 10.3839 32.7071 10.5498C32.3207 10.7158 31.9713 10.957 31.6792 11.2595L27.0828 15.8559L11.0547 13.9701L9.05177 15.9746L21.1548 21.7855L16.0042 26.9361L10.4055 25.8151Z" fill="black"/>
</svg>
