<svg width="48" height="48" viewBox="0 0 48 48" fill="none" xmlns="http://www.w3.org/2000/svg">
<rect width="48" height="48" rx="7" fill="#FCE400"/>
<g clip-path="url(#clip0_515_67)">
<path d="M5 36.5952V18.6865C5 17.205 5.94406 15.8761 7.38688 15.3276L23.2934 9.27137C23.7447 9.09607 24.2494 9.09607 24.7066 9.27137L40.6131 15.3276C42.0559 15.8761 43 17.2107 43 18.6865V36.5952C43 37.3473 42.3647 37.9523 41.575 37.9523H38.725C37.9353 37.9523 37.3 37.3473 37.3 36.5952V21.6666C37.3 20.6657 36.4509 19.8571 35.4 19.8571H12.6C11.5491 19.8571 10.7 20.6657 10.7 21.6666V36.5952C10.7 37.3473 10.0647 37.9523 9.275 37.9523H6.425C5.63531 37.9523 5 37.3473 5 36.5952ZM33.975 37.9523H14.025C13.2353 37.9523 12.6 37.3473 12.6 36.5952V33.4285H35.4V36.5952C35.4 37.3473 34.7647 37.9523 33.975 37.9523ZM12.6 31.619V27.9999H35.4V31.619H12.6ZM12.6 26.1904V21.6666H35.4V26.1904H12.6Z" fill="black"/>
</g>
<defs>
<clipPath id="clip0_515_67">
<rect width="38" height="28.9524" fill="white" transform="translate(5 9)"/>
</clipPath>
</defs>
</svg>
