<svg width="32" height="32" viewBox="0 0 32 32" fill="none" xmlns="http://www.w3.org/2000/svg">
<rect width="32" height="32" rx="10" fill="#FCE400"/>
<path d="M24.995 10.9C24.9784 10.7319 24.9194 10.5708 24.8235 10.4318C24.7277 10.2928 24.5981 10.1803 24.447 10.105L16.447 6.10498C16.3081 6.03546 16.1549 5.99927 15.9995 5.99927C15.8442 5.99927 15.6909 6.03546 15.552 6.10498L7.552 10.105C7.40128 10.1807 7.27212 10.2933 7.17649 10.4323C7.08087 10.5713 7.02189 10.7321 7.005 10.9C6.994 11.007 6.044 21.667 15.594 25.914C15.7216 25.9716 15.86 26.0014 16 26.0014C16.14 26.0014 16.2784 25.9716 16.406 25.914C25.956 21.667 25.006 11.008 24.995 10.9ZM16 23.897V16H9.51C9.12172 14.5783 8.93854 13.1085 8.966 11.635L16 8.11798V16H22.46C21.701 18.74 19.962 21.979 16 23.897Z" fill="black"/>
</svg>
