<svg width="48" height="48" viewBox="0 0 48 48" fill="none" xmlns="http://www.w3.org/2000/svg">
<rect width="48" height="48" rx="7" fill="#FCE400"/>
<path d="M31.9119 36.6666C30.4885 36.6666 29.8726 36.1742 28.9416 35.43C27.8649 34.5703 26.527 33.5 23.9905 33.5C21.4556 33.5 20.1177 34.5703 19.0426 35.4316C18.1132 36.1742 17.4989 36.6666 16.0754 36.6666C14.6552 36.6666 14.0409 36.1742 13.1114 35.4316C12.0364 34.5703 10.7016 33.5 8.16669 33.5V36.6666C9.58852 36.6666 10.2029 37.159 11.1323 37.9016C12.2074 38.763 13.5437 39.8333 16.0754 39.8333C18.6104 39.8333 19.9467 38.763 21.0218 37.9032C21.9528 37.159 22.5671 36.6666 23.9905 36.6666C25.4155 36.6666 26.0663 37.186 26.964 37.9032C28.0391 38.763 29.377 39.8333 31.9119 39.8333C34.4469 39.8333 35.7848 38.763 36.8599 37.9032C37.7576 37.186 38.4084 36.6666 39.8334 36.6666V33.5C37.2969 33.5 35.9589 34.5703 34.8823 35.43C33.9513 36.1742 33.3354 36.6666 31.9119 36.6666ZM14.5 18.4583L11.3334 19.25L14.5 31.9166H16.0754C18.6104 31.9166 19.9467 30.8463 21.0218 29.9865C21.9528 29.2424 22.5671 28.75 23.9905 28.75C25.4155 28.75 26.0663 29.2693 26.964 29.9865C28.0391 30.8463 29.377 31.9166 31.9119 31.9166H33.5L33.5428 31.7472L34.0384 29.7649L36.6667 19.25L33.5 18.4583V12.9182C33.5002 12.552 33.3734 12.1971 33.1413 11.9139C32.9092 11.6307 32.5861 11.4367 32.227 11.365L25.5834 10.0365V8.16663H22.4167V10.0365L15.773 11.365C15.414 11.4367 15.0909 11.6307 14.8588 11.9139C14.6266 12.1971 14.4999 12.552 14.5 12.9182V18.4583ZM17.6667 14.2134L24 12.9467L30.3334 14.2134V17.6666L24 16.0833L17.6667 17.6666V14.2134Z" fill="black"/>
</svg>
