<svg width="48" height="48" viewBox="0 0 48 48" fill="none" xmlns="http://www.w3.org/2000/svg">
<rect width="48" height="48" rx="7" fill="#FCE400"/>
<path d="M35.3209 17.6667C35.0445 17.1881 34.6478 16.7901 34.17 16.5124C33.6923 16.2346 33.1501 16.0867 32.5975 16.0834H28.75V12.9167C28.75 12.4968 28.5832 12.0941 28.2863 11.7971C27.9893 11.5002 27.5866 11.3334 27.1667 11.3334H11.3334C10.4935 11.3334 9.68805 11.667 9.09418 12.2609C8.50032 12.8547 8.16669 13.6602 8.16669 14.5V30.3334C8.16726 30.8887 8.31385 31.4341 8.59175 31.9149C8.86966 32.3956 9.2691 32.7949 9.75002 33.0725C9.69333 34.5423 10.2228 35.9743 11.222 37.0537C12.2212 38.133 13.6082 38.7713 15.0779 38.828C16.5477 38.8846 17.9797 38.3552 19.0591 37.356C20.1384 36.3568 20.7767 34.9698 20.8334 33.5H25.7417C25.9168 34.8248 26.5673 36.0408 27.5722 36.9217C28.5771 37.8025 29.8679 38.2881 31.2042 38.2881C32.5405 38.2881 33.8312 37.8025 34.8361 36.9217C35.841 36.0408 36.4916 34.8248 36.6667 33.5C37.5065 33.5 38.312 33.1664 38.9059 32.5725C39.4997 31.9787 39.8334 31.1732 39.8334 30.3334V25.5834C39.8309 25.2945 39.7546 25.0111 39.6117 24.76L35.3209 17.6667ZM28.75 19.25H32.5975L35.4475 24H28.75V19.25ZM15.2917 35.0834C14.822 35.0834 14.3628 34.9441 13.9722 34.6831C13.5816 34.4221 13.2772 34.0512 13.0975 33.6172C12.9177 33.1833 12.8707 32.7057 12.9623 32.245C13.054 31.7843 13.2802 31.3611 13.6123 31.029C13.9445 30.6968 14.3676 30.4706 14.8283 30.379C15.2891 30.2874 15.7666 30.3344 16.2006 30.5142C16.6345 30.6939 17.0055 30.9983 17.2664 31.3889C17.5274 31.7795 17.6667 32.2386 17.6667 32.7084C17.6667 33.3383 17.4165 33.9424 16.9711 34.3878C16.5257 34.8332 15.9216 35.0834 15.2917 35.0834ZM31.125 35.0834C30.6553 35.0834 30.1961 34.9441 29.8055 34.6831C29.415 34.4221 29.1106 34.0512 28.9308 33.6172C28.751 33.1833 28.704 32.7057 28.7957 32.245C28.8873 31.7843 29.1135 31.3611 29.4456 31.029C29.7778 30.6968 30.201 30.4706 30.6617 30.379C31.1224 30.2874 31.5999 30.3344 32.0339 30.5142C32.4679 30.6939 32.8388 30.9983 33.0998 31.3889C33.3607 31.7795 33.5 32.2386 33.5 32.7084C33.5 33.3383 33.2498 33.9424 32.8044 34.3878C32.359 34.8332 31.7549 35.0834 31.125 35.0834Z" fill="black"/>
</svg>
